<svg xmlns="http://www.w3.org/2000/svg" width="10" height="12.727" viewBox="0 0 10 12.727">
  <g id="location" transform="translate(-5.625 -2.25)">
    <path id="Path_68514" data-name="Path 68514" d="M14.648,13.545a2.273,2.273,0,1,1,2.273-2.273A2.273,2.273,0,0,1,14.648,13.545Zm0-3.636a1.364,1.364,0,1,0,1.364,1.364A1.364,1.364,0,0,0,14.648,9.909Z" transform="translate(-4.023 -4.023)" fill="#009ef7"/>
    <path id="Path_68515" data-name="Path 68515" d="M10.625,14.977,6.79,10.455q-.08-.1-.158-.2a4.949,4.949,0,0,1-1.007-3,5,5,0,0,1,10,0,4.947,4.947,0,0,1-1.007,3h0s-.136.179-.157.2ZM7.358,9.7s.106.14.131.17l3.137,3.7,3.141-3.7.127-.166a4.046,4.046,0,0,0,.823-2.451,4.091,4.091,0,1,0-8.182,0A4.048,4.048,0,0,0,7.358,9.7Z" transform="translate(0 0)" fill="#009ef7"/>
  </g>
</svg>
